<?xml version="1.0" encoding="UTF-8" standalone="no"?><svg xmlns="http://www.w3.org/2000/svg" xmlns:xlink="http://www.w3.org/1999/xlink" contentScriptType="application/ecmascript" contentStyleType="text/css" height="245px" preserveAspectRatio="none" style="width:666px;height:245px;" version="1.1" viewBox="0 0 666 245" width="666px" zoomAndPan="magnify"><defs><filter height="300%" id="f1t5gbqziuy802" width="300%" x="-1" y="-1"><feGaussianBlur result="blurOut" stdDeviation="2.0"/><feColorMatrix in="blurOut" result="blurOut2" type="matrix" values="0 0 0 0 0 0 0 0 0 0 0 0 0 0 0 0 0 0 .4 0"/><feOffset dx="4.0" dy="4.0" in="blurOut2" result="blurOut3"/><feBlend in="SourceGraphic" in2="blurOut3" mode="normal"/></filter></defs><g><line style="stroke: #A80036; stroke-width: 1.0; stroke-dasharray: 5.0,5.0;" x1="355" x2="355" y1="38.2969" y2="204.8281"/><line style="stroke: #A80036; stroke-width: 1.0; stroke-dasharray: 5.0,5.0;" x1="538.5" x2="538.5" y1="38.2969" y2="204.8281"/><rect fill="#FEFECE" filter="url(#f1t5gbqziuy802)" height="30.2969" style="stroke: #A80036; stroke-width: 1.5;" width="53" x="327" y="3"/><text fill="#000000" font-family="sans-serif" font-size="14" lengthAdjust="spacingAndGlyphs" textLength="39" x="334" y="22.9951">Client</text><rect fill="#FEFECE" filter="url(#f1t5gbqziuy802)" height="30.2969" style="stroke: #A80036; stroke-width: 1.5;" width="53" x="327" y="203.8281"/><text fill="#000000" font-family="sans-serif" font-size="14" lengthAdjust="spacingAndGlyphs" textLength="39" x="334" y="223.8232">Client</text><rect fill="#FEFECE" filter="url(#f1t5gbqziuy802)" height="30.2969" style="stroke: #A80036; stroke-width: 1.5;" width="58" x="507.5" y="3"/><text fill="#000000" font-family="sans-serif" font-size="14" lengthAdjust="spacingAndGlyphs" textLength="44" x="514.5" y="22.9951">Server</text><rect fill="#FEFECE" filter="url(#f1t5gbqziuy802)" height="30.2969" style="stroke: #A80036; stroke-width: 1.5;" width="58" x="507.5" y="203.8281"/><text fill="#000000" font-family="sans-serif" font-size="14" lengthAdjust="spacingAndGlyphs" textLength="44" x="514.5" y="223.8232">Server</text><polygon fill="#A80036" points="526.5,70.4297,536.5,74.4297,526.5,78.4297,530.5,74.4297" style="stroke: #A80036; stroke-width: 1.0;"/><line style="stroke: #A80036; stroke-width: 1.0;" x1="355.5" x2="532.5" y1="74.4297" y2="74.4297"/><text fill="#000000" font-family="sans-serif" font-size="13" lengthAdjust="spacingAndGlyphs" textLength="149" x="362.5" y="69.3638">Authentication Request</text><path d="M8,53.2969 L8,78.2969 L347,78.2969 L347,63.2969 L337,53.2969 L8,53.2969 " fill="#FBFB77" filter="url(#f1t5gbqziuy802)" style="stroke: #A80036; stroke-width: 1.0;"/><path d="M337,53.2969 L337,63.2969 L347,63.2969 L337,53.2969 " fill="#FBFB77" style="stroke: #A80036; stroke-width: 1.0;"/><text fill="#000000" font-family="sans-serif" font-size="13" lengthAdjust="spacingAndGlyphs" textLength="318" x="14" y="70.3638">GET /login?user_id=firstUser&amp;password=example</text><polygon fill="#A80036" points="366.5,109.5625,356.5,113.5625,366.5,117.5625,362.5,113.5625" style="stroke: #A80036; stroke-width: 1.0;"/><line style="stroke: #A80036; stroke-width: 1.0; stroke-dasharray: 2.0,2.0;" x1="360.5" x2="537.5" y1="113.5625" y2="113.5625"/><text fill="#000000" font-family="sans-serif" font-size="13" lengthAdjust="spacingAndGlyphs" textLength="159" x="372.5" y="108.4966">Authentication Response</text><path d="M543,92.4297 L543,117.4297 L654,117.4297 L654,102.4297 L644,92.4297 L543,92.4297 " fill="#FBFB77" filter="url(#f1t5gbqziuy802)" style="stroke: #A80036; stroke-width: 1.0;"/><path d="M644,92.4297 L644,102.4297 L654,102.4297 L644,92.4297 " fill="#FBFB77" style="stroke: #A80036; stroke-width: 1.0;"/><text fill="#000000" font-family="sans-serif" font-size="13" lengthAdjust="spacingAndGlyphs" textLength="90" x="549" y="109.4966">with JWT token</text><polygon fill="#A80036" points="526.5,148.6953,536.5,152.6953,526.5,156.6953,530.5,152.6953" style="stroke: #A80036; stroke-width: 1.0;"/><line style="stroke: #A80036; stroke-width: 1.0;" x1="355.5" x2="532.5" y1="152.6953" y2="152.6953"/><text fill="#000000" font-family="sans-serif" font-size="13" lengthAdjust="spacingAndGlyphs" textLength="115" x="362.5" y="147.6294">Create a new task</text><path d="M97,131.5625 L97,156.5625 L346,156.5625 L346,141.5625 L336,131.5625 L97,131.5625 " fill="#FBFB77" filter="url(#f1t5gbqziuy802)" style="stroke: #A80036; stroke-width: 1.0;"/><path d="M336,131.5625 L336,141.5625 L346,141.5625 L336,131.5625 " fill="#FBFB77" style="stroke: #A80036; stroke-width: 1.0;"/><text fill="#000000" font-family="sans-serif" font-size="13" lengthAdjust="spacingAndGlyphs" textLength="228" x="103" y="148.6294">POST /tasks {"content": "example"}</text><polygon fill="#A80036" points="366.5,182.8281,356.5,186.8281,366.5,190.8281,362.5,186.8281" style="stroke: #A80036; stroke-width: 1.0;"/><line style="stroke: #A80036; stroke-width: 1.0; stroke-dasharray: 2.0,2.0;" x1="360.5" x2="537.5" y1="186.8281" y2="186.8281"/><text fill="#000000" font-family="sans-serif" font-size="13" lengthAdjust="spacingAndGlyphs" textLength="121" x="372.5" y="181.7622">New task response</text><!--MD5=[cbd4dfeac856109de3635e684e62948b]
@startuml
Client -> Server: Authentication Request
note left: GET /login?user_id=firstUser&password=example
Client <- - Server: Authentication Response
note right: with JWT token

Client -> Server: Create a new task
note left: POST /tasks {"content": "example"}
Client <- - Server : New task response
@enduml

PlantUML version 1.2020.10(Sun May 17 16:35:57 ICT 2020)
(GPL source distribution)
Java Runtime: OpenJDK Runtime Environment
JVM: OpenJDK 64-Bit Server VM
Java Version: 1.8.0_252-8u252-b09-1ubuntu1-b09
Operating System: Linux
Default Encoding: UTF-8
Language: en
Country: US
--></g></svg>